<svg width="111" height="111" viewBox="0 0 111 111" fill="none" xmlns="http://www.w3.org/2000/svg">
<circle cx="55.5" cy="55.5" r="55.5" fill="#7F5AF0"/>
<path d="M81.2354 83.806C83.0948 83.4134 84.2022 81.4426 83.2782 79.7617C81.2414 76.0561 78.0326 72.7998 73.9278 70.3183C68.6411 67.1223 62.1637 65.39 55.5 65.39C48.8363 65.39 42.3589 67.1223 37.0722 70.3183C32.9674 72.7998 29.7586 76.056 27.7217 79.7617C26.7978 81.4426 27.9051 83.4134 29.7645 83.8059C46.7391 87.3893 64.2608 87.3893 81.2354 83.806Z" fill="white"/>
<path d="M72.3172 41.5413C72.3172 50.9494 64.7878 58.5761 55.5 58.5761C46.2121 58.5761 38.6828 50.9494 38.6828 41.5413C38.6828 32.1332 46.2121 24.5065 55.5 24.5065C64.7878 24.5065 72.3172 32.1332 72.3172 41.5413Z" fill="white"/>
</svg>
