<svg width="57" height="63" viewBox="0 0 57 63" fill="none" xmlns="http://www.w3.org/2000/svg">
<path d="M54.2354 59.806C56.0948 59.4134 57.2022 57.4426 56.2782 55.7617C54.2414 52.0561 51.0326 48.7998 46.9278 46.3183C41.6411 43.1223 35.1637 41.39 28.5 41.39C21.8363 41.39 15.3589 43.1223 10.0722 46.3183C5.96735 48.7998 2.75855 52.056 0.721716 55.7617C-0.202211 57.4426 0.90515 59.4134 2.76451 59.8059C19.7391 63.3893 37.2608 63.3893 54.2354 59.806Z" fill="white"/>
<path d="M45.3172 17.5413C45.3172 26.9494 37.7878 34.5761 28.5 34.5761C19.2121 34.5761 11.6828 26.9494 11.6828 17.5413C11.6828 8.13321 19.2121 0.50647 28.5 0.50647C37.7878 0.50647 45.3172 8.13321 45.3172 17.5413Z" fill="white"/>
</svg>
