<svg width="65" height="26" viewBox="0 0 65 26" fill="none" xmlns="http://www.w3.org/2000/svg">
<path d="M19.4232 3.00985L13.6143 0C7.89362 2.05907 0 11.4571 0 11.4571L5.43411 14.4951C13.0443 4.99015 19.4232 3.00985 19.4232 3.00985Z" fill="white"/>
<path d="M38.9591 3.61724L32.952 0.171387C32.952 0.171387 30.0353 3.22061 22.483 6.82399C14.9307 10.4274 9.91113 16.9225 9.91113 16.9225L15.2385 19.9323C15.2385 19.9323 17.5975 16.4077 26.3932 11.9323C35.189 7.4569 38.9591 3.61724 38.9591 3.61724Z" fill="white"/>
<path d="M35.1405 13.0826C25.2292 17.6397 20.5114 22.6777 20.5114 22.6777L26.043 25.634C29.0053 22.6635 35.9633 19.1783 42.0588 16.5651C48.1542 13.9519 54.1583 7.70997 54.1583 7.70997C58.678 10.2163 64.2158 7.7606 64.2158 7.7606L51.6592 0.804199C48.011 5.12206 45.0517 8.52571 35.1405 13.0826Z" fill="white"/>
</svg>
